<?xml version="1.0" encoding="iso-8859-1"?>
<svg version="1.1" xmlns="http://www.w3.org/2000/svg" xmlns:xlink="http://www.w3.org/1999/xlink" width="32" height="32"
	 viewBox="0 0 32 32" xml:space="preserve">
  <g>
    <path
      d="M 20.601562 16.511719 C 20.308594 16.21875 20.308594 15.78125 20.601562 15.488281 L 31.5625 4.53125 C 31.855469 4.238281 32 3.800781 32 3.507812 C 32 3.214844 31.855469 2.777344 31.5625 2.484375 L 29.515625 0.4375 C 29.222656 0.144531 28.785156 0 28.492188 0 C 28.054688 0 27.761719 0.144531 27.46875 0.4375 L 16.511719 11.398438 C 16.21875 11.691406 15.78125 11.691406 15.488281 11.398438 L 4.53125 0.4375 C 4.238281 0.144531 3.800781 0 3.507812 0 C 3.214844 0 2.777344 0.144531 2.484375 0.4375 L 0.4375 2.484375 C 0.144531 2.777344 0 3.214844 0 3.507812 C 0 3.800781 0.144531 4.238281 0.4375 4.53125 L 11.398438 15.488281 C 11.691406 15.78125 11.691406 16.21875 11.398438 16.511719 L 0.4375 27.46875 C 0.144531 27.761719 0 28.199219 0 28.492188 C 0 28.785156 0.144531 29.222656 0.4375 29.515625 L 2.484375 31.5625 C 2.777344 31.855469 3.214844 32 3.507812 32 C 3.800781 32 4.238281 31.855469 4.53125 31.5625 L 15.488281 20.601562 C 15.78125 20.308594 16.21875 20.308594 16.511719 20.601562 L 27.46875 31.5625 C 27.761719 31.855469 28.199219 32 28.492188 32 C 28.785156 32 29.222656 31.855469 29.515625 31.5625 L 31.5625 29.515625 C 31.855469 29.222656 32 28.785156 32 28.492188 C 32 28.199219 31.855469 27.761719 31.5625 27.46875 Z M 20.601562 16.511719 "
    />
  </g>
</svg>
