<?xml version="1.0" encoding="iso-8859-1"?>
<svg version="1.1" xmlns="http://www.w3.org/2000/svg" xmlns:xlink="http://www.w3.org/1999/xlink" width="32" height="32"
	 viewBox="0 0 32 32" xml:space="preserve">
  <g>
    <path
      d="M 31.800781 13.226562 C 31.6875 13.078125 31.542969 12.992188 31.363281 12.964844 L 27.554688 12.382812 C 27.347656 11.714844 27.0625 11.035156 26.699219 10.34375 C 26.949219 9.996094 27.324219 9.507812 27.824219 8.875 C 28.324219 8.246094 28.675781 7.785156 28.886719 7.492188 C 28.996094 7.339844 29.050781 7.179688 29.050781 7.011719 C 29.050781 6.820312 29.003906 6.667969 28.90625 6.554688 C 28.40625 5.847656 27.261719 4.667969 25.472656 3.015625 C 25.304688 2.878906 25.132812 2.808594 24.953125 2.808594 C 24.746094 2.808594 24.578125 2.871094 24.453125 2.996094 L 21.496094 5.222656 C 20.929688 4.933594 20.304688 4.675781 19.625 4.453125 L 19.042969 0.625 C 19.027344 0.445312 18.949219 0.292969 18.804688 0.175781 C 18.65625 0.0585938 18.488281 0 18.292969 0 L 13.671875 0 C 13.269531 0 13.019531 0.195312 12.921875 0.582031 C 12.742188 1.277344 12.542969 2.566406 12.320312 4.453125 C 11.667969 4.660156 11.035156 4.925781 10.425781 5.246094 L 7.554688 3.015625 C 7.375 2.878906 7.195312 2.808594 7.011719 2.808594 C 6.707031 2.808594 6.050781 3.304688 5.046875 4.296875 C 4.039062 5.289062 3.359375 6.035156 2.996094 6.535156 C 2.871094 6.714844 2.808594 6.875 2.808594 7.011719 C 2.808594 7.179688 2.878906 7.347656 3.019531 7.511719 C 3.945312 8.636719 4.691406 9.59375 5.246094 10.386719 C 4.898438 11.023438 4.628906 11.660156 4.433594 12.300781 L 0.5625 12.882812 C 0.410156 12.910156 0.277344 13 0.167969 13.152344 C 0.0546875 13.304688 0 13.464844 0 13.632812 L 0 18.25 C 0 18.433594 0.0546875 18.59375 0.167969 18.742188 C 0.277344 18.886719 0.421875 18.972656 0.605469 19 L 4.414062 19.5625 C 4.605469 20.242188 4.890625 20.929688 5.265625 21.621094 C 5.015625 21.96875 4.640625 22.457031 4.140625 23.089844 C 3.640625 23.722656 3.289062 24.183594 3.082031 24.472656 C 2.96875 24.625 2.914062 24.785156 2.914062 24.953125 C 2.914062 25.132812 2.960938 25.292969 3.058594 25.429688 C 3.601562 26.179688 4.746094 27.347656 6.492188 28.925781 C 6.644531 29.078125 6.820312 29.15625 7.011719 29.15625 C 7.222656 29.15625 7.394531 29.09375 7.535156 28.96875 L 10.46875 26.742188 C 11.039062 27.035156 11.660156 27.289062 12.339844 27.511719 L 12.925781 31.339844 C 12.9375 31.523438 13.019531 31.671875 13.164062 31.789062 C 13.308594 31.90625 13.480469 31.964844 13.671875 31.964844 L 18.292969 31.964844 C 18.695312 31.964844 18.945312 31.773438 19.042969 31.382812 C 19.222656 30.691406 19.425781 29.398438 19.644531 27.511719 C 20.296875 27.304688 20.929688 27.039062 21.539062 26.722656 L 24.414062 28.96875 C 24.605469 29.09375 24.785156 29.15625 24.953125 29.15625 C 25.257812 29.15625 25.910156 28.664062 26.910156 27.679688 C 27.910156 26.695312 28.59375 25.945312 28.96875 25.429688 C 29.09375 25.292969 29.15625 25.132812 29.15625 24.953125 C 29.15625 24.773438 29.085938 24.597656 28.949219 24.433594 C 27.949219 23.210938 27.207031 22.253906 26.722656 21.558594 C 27 21.046875 27.269531 20.414062 27.535156 19.667969 L 31.382812 19.082031 C 31.550781 19.054688 31.6875 18.964844 31.800781 18.8125 C 31.910156 18.660156 31.964844 18.5 31.964844 18.335938 L 31.964844 13.714844 C 31.964844 13.535156 31.910156 13.371094 31.800781 13.226562 Z M 19.75 19.75 C 18.710938 20.789062 17.453125 21.3125 15.984375 21.3125 C 14.511719 21.3125 13.257812 20.789062 12.214844 19.75 C 11.175781 18.710938 10.65625 17.453125 10.65625 15.984375 C 10.65625 14.511719 11.175781 13.257812 12.214844 12.214844 C 13.257812 11.175781 14.511719 10.65625 15.984375 10.65625 C 17.453125 10.65625 18.710938 11.175781 19.75 12.214844 C 20.789062 13.257812 21.3125 14.511719 21.3125 15.984375 C 21.3125 17.453125 20.789062 18.710938 19.75 19.75 Z M 19.75 19.75 "
    />
  </g>
</svg>
