<?xml version="1.0" encoding="iso-8859-1"?>
<svg version="1.1" xmlns="http://www.w3.org/2000/svg" xmlns:xlink="http://www.w3.org/1999/xlink" width="32" height="32"
	 viewBox="0 0 32 32" xml:space="preserve">
  <g transform="scale(1.5) translate(3 3)">
    <path
      d="M 14.539062 5.628906 L 9.378906 5.628906 L 9.378906 0.46875 C 9.378906 0.210938 9.171875 0 8.910156 0 L 6.097656 0 C 5.839844 0 5.628906 0.210938 5.628906 0.46875 L 5.628906 5.628906 L 0.46875 5.628906 C 0.210938 5.628906 0 5.839844 0 6.097656 L 0 8.910156 C 0 9.171875 0.210938 9.378906 0.46875 9.378906 L 5.628906 9.378906 L 5.628906 14.539062 C 5.628906 14.800781 5.839844 15.007812 6.097656 15.007812 L 8.910156 15.007812 C 9.171875 15.007812 9.382812 14.800781 9.382812 14.539062 L 9.382812 9.378906 L 14.539062 9.378906 C 14.800781 9.378906 15.007812 9.171875 15.007812 8.910156 L 15.007812 6.097656 C 15.007812 5.839844 14.800781 5.628906 14.539062 5.628906 Z M 14.539062 5.628906 "
    />
  </g>
</svg>
