<?xml version="1.0" encoding="iso-8859-1"?>
<svg version="1.1" xmlns="http://www.w3.org/2000/svg" xmlns:xlink="http://www.w3.org/1999/xlink" width="32" height="32"
	 viewBox="0 0 32 32" xml:space="preserve">
  <g>
    <path
      d="M 31.214844 27.433594 L 24.265625 20.484375 C 24.226562 20.445312 24.183594 20.421875 24.144531 20.386719 C 25.515625 18.3125 26.3125 15.828125 26.3125 13.15625 C 26.3125 5.890625 20.421875 0 13.15625 0 C 5.890625 0 0 5.890625 0 13.15625 C 0 20.421875 5.890625 26.3125 13.15625 26.3125 C 15.828125 26.3125 18.3125 25.515625 20.386719 24.144531 C 20.421875 24.183594 20.445312 24.226562 20.484375 24.265625 L 27.433594 31.214844 C 28.480469 32.261719 30.171875 32.261719 31.214844 31.214844 C 32.261719 30.171875 32.261719 28.480469 31.214844 27.433594 Z M 13.15625 21.75 C 8.410156 21.75 4.5625 17.902344 4.5625 13.15625 C 4.5625 8.410156 8.410156 4.5625 13.15625 4.5625 C 17.902344 4.5625 21.75 8.410156 21.75 13.15625 C 21.75 17.902344 17.902344 21.75 13.15625 21.75 Z M 13.15625 21.75 "
    />
  </g>
</svg>
